<?xml version="1.0" encoding="utf-8"?>
<!-- Generator: Adobe Illustrator 18.0.0, SVG Export Plug-In . SVG Version: 6.00 Build 0)  -->
<!DOCTYPE svg PUBLIC "-//W3C//DTD SVG 1.1//EN" "http://www.w3.org/Graphics/SVG/1.1/DTD/svg11.dtd">
<svg version="1.1" id="Laag_1" xmlns="http://www.w3.org/2000/svg" xmlns:xlink="http://www.w3.org/1999/xlink" x="0px" y="0px"
	 viewBox="0 0 128 128" enable-background="new 0 0 128 128" xml:space="preserve">
<path fill="#F0F0F0" d="M93.2,58.2L68.9,33.8C67.8,32.6,67,33,67,34.6v13.6c-30,6.1-38.8,30.3-41.6,44.6c0,0-0.1,0-0.1,0.1
	c0,0,0,0,0,0c0,0,0,0,0,0c0,0.2,0.1,0.4,0.3,0.4c0.1,0,0.1,0,0.2,0c0.2,0,0.4-0.1,0.5-0.2C35.3,80.4,48,73.5,67,72.7v13.2
	c0,1.6,0.8,2,1.9,0.8l24.4-24.5C94.4,61.2,94.3,59.4,93.2,58.2z"/>
</svg>
