<?xml version="1.0" encoding="utf-8"?>
<!-- Generator: Adobe Illustrator 17.0.0, SVG Export Plug-In . SVG Version: 6.00 Build 0)  -->
<!DOCTYPE svg PUBLIC "-//W3C//DTD SVG 1.1//EN" "http://www.w3.org/Graphics/SVG/1.1/DTD/svg11.dtd">
<svg version="1.1" id="Laag_1" xmlns="http://www.w3.org/2000/svg" xmlns:xlink="http://www.w3.org/1999/xlink" x="0px" y="0px"
	 width="128px" height="128px" viewBox="0 0 128 128" enable-background="new 0 0 128 128" xml:space="preserve">
<path fill="#E4087D" d="M93.2,58.247L68.89,33.77c-1.12-1.121-1.89-0.742-1.89,0.843v13.624c-30,6.077-38.775,30.315-41.628,44.563
	c-0.004,0.019-0.073,0.037-0.074,0.056c-0.003,0.013-0.042,0.026-0.045,0.039c0.002-0.003-0.013-0.007-0.011-0.01
	c-0.003,0.192,0.092,0.372,0.272,0.45c0.062,0.026,0.122,0.039,0.187,0.039c0.151,0,0.441-0.071,0.534-0.201
	C35.343,80.417,48,73.54,67,72.692v13.24c0,1.584,0.771,1.964,1.891,0.844l24.381-24.454C94.392,61.201,94.32,59.368,93.2,58.247z"
	/>
</svg>
