<?xml version="1.0" encoding="utf-8"?>
<!-- Generator: Adobe Illustrator 17.0.0, SVG Export Plug-In . SVG Version: 6.00 Build 0)  -->
<!DOCTYPE svg PUBLIC "-//W3C//DTD SVG 1.1//EN" "http://www.w3.org/Graphics/SVG/1.1/DTD/svg11.dtd">
<svg version="1.1" id="Laag_1" xmlns="http://www.w3.org/2000/svg" xmlns:xlink="http://www.w3.org/1999/xlink" x="0px" y="0px"
	 width="128px" height="128px" viewBox="0 0 128 128" enable-background="new 0 0 128 128" xml:space="preserve">
<path fill="#E4087D" d="M94.016,83.41l-19.66-19.66l19.16-19.16c1.945-1.945,1.945-5.127,0-7.071l-3.536-3.536
	c-1.945-1.945-5.127-1.945-7.071,0l-19.16,19.16l-19.16-19.16c-1.945-1.945-5.127-1.945-7.071,0l-3.536,3.536
	c-1.945,1.945-1.945,5.126,0,7.071l19.16,19.16l-19.66,19.66c-1.945,1.945-1.945,5.127,0,7.071l3.536,3.536
	c1.945,1.945,5.127,1.945,7.071,0l19.66-19.66l19.66,19.66c1.945,1.945,5.127,1.945,7.071,0l3.536-3.536
	C95.961,88.536,95.961,85.354,94.016,83.41z"/>
</svg>
