<?xml version="1.0" encoding="utf-8"?>
<!-- Generator: Adobe Illustrator 17.0.0, SVG Export Plug-In . SVG Version: 6.00 Build 0)  -->
<!DOCTYPE svg PUBLIC "-//W3C//DTD SVG 1.1//EN" "http://www.w3.org/Graphics/SVG/1.1/DTD/svg11.dtd">
<svg version="1.1" id="Laag_1" xmlns="http://www.w3.org/2000/svg" xmlns:xlink="http://www.w3.org/1999/xlink" x="0px" y="0px"
	 width="128px" height="128px" viewBox="0 0 128 128" enable-background="new 0 0 128 128" xml:space="preserve">
<g>
	<path fill="#E4087D" d="M64,29.143c-19.172,0-34.857,15.685-34.857,34.857S44.828,98.857,64,98.857S98.857,83.17,98.857,63.999
		S83.172,29.143,64,29.143z M64.716,84.99c-0.229,1.634-1.766,2.971-3.416,2.971h-1.636c-1.65,0-2.813-1.337-2.584-2.971
		l3.618-25.866c0.229-1.634,1.766-2.971,3.416-2.971h1.636c1.65,0,2.813,1.337,2.584,2.971L64.716,84.99z M69.803,47.885
		c-1.023,0.983-2.275,1.474-3.758,1.474c-1.283,0-2.326-0.391-3.127-1.173c-0.802-0.782-1.203-1.774-1.203-2.976
		c0-1.483,0.5-2.715,1.502-3.698c1.002-0.982,2.264-1.473,3.789-1.473c1.322,0,2.376,0.391,3.157,1.173
		c0.782,0.782,1.172,1.794,1.172,3.036C71.336,45.69,70.824,46.903,69.803,47.885z"/>
</g>
</svg>
