<?xml version="1.0" encoding="utf-8"?>
<!-- Generator: Adobe Illustrator 18.1.0, SVG Export Plug-In . SVG Version: 6.00 Build 0)  -->
<!DOCTYPE svg PUBLIC "-//W3C//DTD SVG 1.1//EN" "http://www.w3.org/Graphics/SVG/1.1/DTD/svg11.dtd">
<svg version="1.1" id="Laag_1" xmlns="http://www.w3.org/2000/svg" xmlns:xlink="http://www.w3.org/1999/xlink" x="0px" y="0px"
	 viewBox="570 446 1000 295" enable-background="new 570 446 1000 295" xml:space="preserve">
<g>
	<g>
		<path fill="#FFFFFF" d="M1152.8,683.7l-7.3,35.2h-11.4l7.4-35.6c0.2-0.8,0.3-1.7,0.3-2.4c0-3.5-1.8-6.2-7.2-6.2
			c-3.1,0-5.8,0.7-8.6,2.1l-8.7,42.1h-11.4l15.2-73.4h11.4l-5.2,24.9c2.9-1.5,7.5-2.9,11.9-2.9c9.3,0,14,4.8,14,12.1
			C1153.1,681,1153,682.3,1152.8,683.7z"/>
		<path fill="#FFFFFF" d="M1197.6,708.7c-4.5,6.9-11.1,11.2-20.2,11.2c-11.3,0-16.9-7.3-16.9-17.8c0-7.6,2.6-17.1,6.7-23.4
			c4.6-6.9,11.4-11.1,20.3-11.1c11.4,0,16.8,7.2,16.8,17.8C1204.3,692.9,1201.6,702.5,1197.6,708.7z M1186.7,674.8
			c-4.9,0-8.2,3.4-10.6,8.3c-2.4,5.1-4.6,14.3-4.6,20c0,5.1,1.7,9,6.9,9c4.9,0,8.2-3.4,10.5-8.2c2.4-5.2,4.5-14.6,4.5-20.3
			C1193.4,678.6,1191.8,674.8,1186.7,674.8z"/>
		<path fill="#FFFFFF" d="M1247.8,719.7c-2.8,13.6-12,20.3-24.8,20.3c-6.7,0-13.1-1.5-16.6-3.6l4.4-7.1c2.5,1.4,7,2.6,11.8,2.6
			c8.1,0,12.5-4.9,13.9-11.1l0.7-3.1c-2.2,1-5.4,1.8-9.4,1.8c-10,0-16.3-6.5-16.3-17.4c0-7.7,3.1-17.2,7.6-23.3
			c5.1-7,12.8-11.1,22.9-11.1c7.1,0,12.9,1.7,16,3.6L1247.8,719.7z M1240.3,674.4c-5.6,0-9.8,3.2-13,9c-2.8,5.1-4.9,13.6-4.9,19.4
			c0,6.5,2.8,10,9.2,10c2.6,0,5.1-0.7,6.8-1.6l7.5-35.8C1244.9,674.8,1243.2,674.4,1240.3,674.4z"/>
		<path fill="#FFFFFF" d="M1305.7,693.5l-31.7,4.4c-0.7,7.7,1.5,14.1,10.6,14.1c5.4,0,10.5-1.7,13.3-3.1l1.3,7.3
			c-3.8,2-9.9,3.6-16.9,3.6c-11.8,0-19.3-6.4-19.3-18.7c0-7.5,2.7-16.4,6.9-22.4c4.9-7,12-11.1,20.4-11.1c10.3,0,16.4,6,16.4,16.9
			C1306.9,687.3,1306.5,690.3,1305.7,693.5z M1289.2,674.6c-4.6,0-8.8,2.9-11.7,8.3c-1.3,2.5-2.4,5.6-3.2,9.3l21.7-3.2
			c0.5-2.1,0.7-4,0.7-5.7C1296.7,677.4,1294,674.6,1289.2,674.6z"/>
		<path fill="#FFFFFF" d="M1343.8,677.4c-1.5-1.3-4.5-2.3-7.7-2.3c-4.9,0-8.8,3.7-8.8,8.1c0,8.1,15.3,6.2,15.3,18.2
			c0,9.5-7.7,18.4-21.5,18.4c-5.3,0-10.6-1.6-13.3-3.6l4.3-7c1.6,1.2,4.9,2.6,9,2.6c5.7,0,9.6-4.5,9.6-9.1c0-8.2-14.5-6.1-14.5-18.1
			c0-8.5,7.1-17,19-17c5.3,0,9.4,1.4,12.4,3.6L1343.8,677.4z"/>
		<path fill="#FFFFFF" d="M1385.8,677.4c-1-0.8-3.2-2.1-6-2.1c-4.7,0-8.6,2.6-11.4,7.5c-2.8,4.8-4.6,12.2-4.6,17.9
			c0,6.8,2.7,10.8,7.7,10.8c2.9,0,6-1.1,7.6-2.3l1.2,7.1c-2.3,2-6.8,3.6-12.1,3.6c-9.5,0-15.8-7.6-15.8-19.1
			c0-7.5,2.6-16.4,6.8-22.5c4.9-7.1,11.8-10.6,19-10.6c5.4,0,9.9,2.1,11.5,3.6L1385.8,677.4z"/>
		<path fill="#FFFFFF" d="M1436,683.7l-7.3,35.2h-11.4l7.4-35.6c0.2-0.8,0.3-1.7,0.3-2.4c0-3.5-1.8-6.2-7.2-6.2
			c-3.1,0-5.8,0.7-8.6,2.1l-8.7,42.1h-11.4l15.2-73.4h11.4l-5.2,24.9c2.9-1.5,7.5-2.9,11.9-2.9c9.3,0,14,4.8,14,12.1
			C1436.4,681,1436.3,682.3,1436,683.7z"/>
		<path fill="#FFFFFF" d="M1480.9,708.7c-4.5,6.9-11.1,11.2-20.2,11.2c-11.3,0-16.9-7.3-16.9-17.8c0-7.6,2.6-17.1,6.7-23.4
			c4.6-6.9,11.4-11.1,20.3-11.1c11.4,0,16.8,7.2,16.8,17.8C1487.6,692.9,1484.9,702.5,1480.9,708.7z M1469.9,674.8
			c-4.9,0-8.2,3.4-10.6,8.3c-2.4,5.1-4.6,14.3-4.6,20c0,5.1,1.7,9,6.9,9c5,0,8.2-3.4,10.5-8.2c2.4-5.2,4.5-14.6,4.5-20.3
			C1476.6,678.6,1475.1,674.8,1469.9,674.8z"/>
		<path fill="#FFFFFF" d="M1531.9,708.7c-4.5,6.9-11.1,11.2-20.2,11.2c-11.3,0-16.9-7.3-16.9-17.8c0-7.6,2.6-17.1,6.7-23.4
			c4.6-6.9,11.4-11.1,20.3-11.1c11.4,0,16.8,7.2,16.8,17.8C1538.6,692.9,1535.9,702.5,1531.9,708.7z M1520.9,674.8
			c-4.9,0-8.2,3.4-10.6,8.3c-2.4,5.1-4.6,14.3-4.6,20c0,5.1,1.7,9,6.9,9c5,0,8.2-3.4,10.5-8.2c2.4-5.2,4.5-14.6,4.5-20.3
			C1527.7,678.6,1526.1,674.8,1520.9,674.8z"/>
		<path fill="#FFFFFF" d="M1554.8,718.9h-11.3l15.2-73.4h11.3L1554.8,718.9z"/>
	</g>
	<path fill="#FFFFFF" d="M816.9,618.9l86.5-169.6h-39.3c-12.7,0-20.2,16.7-20.2,16.7l-38.5,84.8c-2.1,4.6-3.7,8.9-5.1,12.8
		c0-1.7,0.1-3.4,0.1-5.3c0-2.2,0-4.5-0.2-6.8l-3.2-85.3c-0.8-16.3-20.6-16.9-20.6-16.9h-35l19.7,178.9H802
		C802,628.2,812,628.6,816.9,618.9z"/>
	<path fill="#FFFFFF" d="M1331.4,474.3l8.3-13.9l-1.5-1.1c-12.8-8.8-28.7-13.3-47.3-13.3c-45.5,0-70,32.5-70,63.1
		c0,23.9,15.5,33.1,27.9,40.4c9.3,5.5,17.4,10.3,17.4,19.8c0,10.8-8.4,22.3-24,22.3c-6.4,0-12.1-1-16.8-2.5
		c-11.2-3.3-17.3,2.1-19.8,6c-2.1,3.3-12.8,21.3-12.8,21.3l1.4,1.1c10.6,8,30.2,13.3,48.6,13.3c54.2,0,78.8-34.7,78.8-67
		c0-23.3-16.5-32.9-29.7-40.6c-10.1-5.9-18.8-10.9-18.8-20.3c0-11.8,9.6-20.7,22.4-20.7c4.9,0,9.7,0.9,13.7,2.2
		C1309.4,484.5,1321.7,489.6,1331.4,474.3z"/>
	<g>
		<g>
			<path fill="#FFFFFF" d="M1133.6,629.8h43.7l24.9-122.4c1.1-5.8,1.6-10.2,1.6-14.4c0-21.2-11.6-46.4-66.8-46.4
				c-28.1,0-54.7,4.7-74.9,13.2l-0.9,0.4l-31,150.3c0,0,37-14.7,45.7-18.6c12.4-5.5,15.2-17,18.2-30.5c4.9-22,15.4-74.2,15.8-76
				c4.9-1.5,12.1-3.2,20.1-3.2c12.9,0,19.8,5.3,19.8,15.4c0,2.1-0.3,4.2-0.9,6.7c0,0.1-15.8,79.3-22.3,111.8
				C1126.5,616,1122.8,630.3,1133.6,629.8z"/>
		</g>
	</g>
	<path fill="#FFFFFF" d="M676.5,446c-19.5,0.2-28.7,1.7-41.7,4.6c-4.3,1-11.7,3.1-16,5c-13.6,5.9-10.7,23.7-8.4,37.1l0,0.1
		c12-4.5,28.8-11.4,47.8-11.4c11,0,18,2,21.4,6.2c1.8,2.2,2.7,5,2.7,8.6c0,1.9-0.2,3.9-0.7,6.2c0,0-1,4.8-1.4,6.7l-5.7,27.3
		c-1,4.7-12,57.9-12.4,59.8c-4.6,2-10.6,3-17.1,3c-9.9,0-16.8-2.3-20.5-6.9c-2.3-2.9-3.5-6.8-3.5-11.6c0-2.5,0.3-5.3,0.9-8.3
		c4-19.2,20.4-27.8,31.7-32.5c5.3-2.2,7.1-10.4,8.4-16.4l2.2-12.7c-41.2,5.7-83.7,19.6-92.7,62.7c-1,4.8-1.5,9.4-1.5,13.7
		c0,9.9,2.7,18.2,8.1,24.8c10.2,12.5,29.9,18.9,58.6,18.9c28,0,53-4.7,70.3-13.2l0.9-0.4l21.9-105.2c4.4-21.3,2.1-37.7-7-48.8
		C713.7,452.3,698.3,446.2,676.5,446L676.5,446z"/>
	<path fill="#FFFFFF" d="M980.1,446c-19.5,0.2-28.7,1.7-41.7,4.6c-4.3,1-11.7,3.1-16,5c-13.6,5.9-10.7,23.7-8.4,37.1l0,0.1
		c12-4.5,28.8-11.4,47.8-11.4c11,0,18,2,21.4,6.2c1.8,2.2,2.7,5,2.7,8.6c0,1.9-0.2,3.9-0.7,6.2c0,0-1,4.8-1.4,6.7l-5.7,27.3
		c-1,4.7-12,57.9-12.4,59.8c-4.6,2-10.6,3-17.1,3c-9.9,0-16.8-2.3-20.5-6.9c-2.3-2.9-3.5-6.8-3.5-11.6c0-2.5,0.3-5.3,0.9-8.3
		c4-19.2,20.4-27.8,31.7-32.5c5.3-2.2,7.1-10.4,8.4-16.4l2.2-12.7c-41.2,5.7-83.7,19.6-92.7,62.7c-1,4.8-1.5,9.4-1.5,13.7
		c0,9.9,2.7,18.2,8.1,24.8c10.2,12.5,29.9,18.9,58.6,18.9c28,0,53-4.7,70.3-13.2l0.9-0.4l21.9-105.2c4.4-21.3,2.1-37.7-7-48.8
		C1017.3,452.3,1001.9,446.2,980.1,446L980.1,446z"/>
</g>
</svg>
