<?xml version="1.0" encoding="utf-8"?>
<!-- Generator: Adobe Illustrator 18.1.0, SVG Export Plug-In . SVG Version: 6.00 Build 0)  -->
<!DOCTYPE svg PUBLIC "-//W3C//DTD SVG 1.1//EN" "http://www.w3.org/Graphics/SVG/1.1/DTD/svg11.dtd">
<svg version="1.1" id="Layer_1" xmlns="http://www.w3.org/2000/svg" xmlns:xlink="http://www.w3.org/1999/xlink" x="0px" y="0px"
	 viewBox="0 0 141.8 49.8" enable-background="new 0 0 141.8 49.8" xml:space="preserve">
<g>
	<path d="M6.3,3.1c-0.1-1-0.6-1.9-1.7-1.9C3.6,1.2,3.2,2,3,2.6C2.6,3.5,2.5,4.9,2.5,5c0,2.2,0.4,4.4,2.1,4.4c0.8,0,1.2-0.6,1.3-0.8
		c0.3-0.5,0.3-1,0.4-1.4l1.4,0.2c-0.1,0.8-0.3,1.7-1,2.3c-0.9,0.9-1.9,0.9-2.2,0.9c-0.8,0-3.3-0.4-3.3-5.3C1.2,3,1.8,0,4.6,0
		c0.6,0,1.5,0.2,2.1,0.8c0.7,0.7,0.8,1.5,0.9,2L6.3,3.1z"/>
	<path d="M16,2.5c0.3,0.9,0.4,2.1,0.4,2.8c0,2.4-0.7,5.3-3.4,5.3c-2.5,0-3.4-2.5-3.4-5.2c0-1.5,0.2-3,0.8-3.9
		C11.2,0.2,12.2,0,12.9,0C14.6,0,15.5,1.2,16,2.5z M13,1.2c-0.9,0-1.4,0.6-1.7,1.6C11.1,3.4,11,4.3,11,5.3c0,1.3,0.2,4,1.9,4
		c1.4,0,2-1.5,2-4C14.9,3.9,14.8,1.2,13,1.2z"/>
	<path d="M22.7,10.3L20.2,1c0,0,0-0.1-0.1-0.1S20,1,20,1.1v9.2h-1.1V0.2H21L23.1,8c0,0.1,0.1,0.1,0.1,0.1c0.1,0,0.2-0.1,0.2-0.1
		l2.1-7.8h2.1v10.1h-1.1V1.1c0-0.1-0.1-0.1-0.1-0.1c-0.1,0-0.1,0-0.1,0.1l-2.4,9.2H22.7z"/>
	<path d="M34.9,10.3L32.5,1c0,0,0-0.1-0.1-0.1S32.3,1,32.3,1.1v9.2h-1.1V0.2h2.1L35.4,8c0,0.1,0.1,0.1,0.1,0.1
		c0.1,0,0.2-0.1,0.2-0.1l2.1-7.8h2.1v10.1h-1.1V1.1c0-0.1-0.1-0.1-0.1-0.1c-0.1,0-0.1,0-0.1,0.1l-2.4,9.2H34.9z"/>
	<path d="M44.8,0.2v6.7c0,1.1,0.2,2.4,1.9,2.4c0.5,0,1.2-0.2,1.5-0.9c0.3-0.6,0.3-1.3,0.3-1.9V0.2h1.3v6.8c0,1-0.2,2-0.9,2.7
		c-0.8,0.8-1.8,0.9-2.5,0.9c-0.5,0-1.6-0.2-2.3-1.2c-0.6-0.8-0.6-1.7-0.6-2.6V0.2H44.8z"/>
	<path d="M52.6,0.2h1.8l2.9,6.5c0,0,0.4,1,0.4,1c0.1,0.2,0.4,1,0.4,1.1c0,0,0.1,0,0.1,0c0.1-0.1,0.1-0.1,0.1-0.2
		c0-0.2-0.1-0.8-0.1-1c0-0.6,0-1.2,0-1.5v-6h1.2v10.1h-1.8l-3-6.6c-0.4-0.8-0.7-1.9-0.8-2.2c0,0-0.1,0-0.1,0
		c-0.1,0.1-0.1,0.1-0.1,0.2c0,0.3,0.1,1.8,0.1,1.9v6.7h-1.2V0.2z"/>
	<path d="M62.1,9.4h0.9V1.1h-0.9V0.2h3.2v0.9h-0.9v8.3h0.9v0.9h-3.2V9.4z"/>
	<path d="M72.3,3.1c-0.1-1-0.6-1.9-1.7-1.9c-1,0-1.4,0.8-1.7,1.3c-0.4,0.9-0.4,2.3-0.4,2.4c0,2.2,0.4,4.4,2.1,4.4
		c0.8,0,1.2-0.6,1.3-0.8c0.3-0.5,0.3-1,0.4-1.4l1.4,0.2c-0.1,0.8-0.3,1.7-1,2.3c-0.9,0.9-1.9,0.9-2.2,0.9c-0.8,0-3.3-0.4-3.3-5.3
		C67.2,3,67.8,0,70.7,0c0.6,0,1.5,0.2,2.1,0.8c0.7,0.7,0.8,1.5,0.9,2L72.3,3.1z"/>
	<path d="M81.3,8.2h-4l-0.6,2.1h-1.5l3.3-10.1h1.6l3.4,10.1H82L81.3,8.2z M80.9,7l-1.6-5.2c0,0,0-0.1-0.1-0.1c0,0-0.1,0-0.1,0.1
		L77.7,7H80.9z"/>
	<path d="M91,0.2v1.3h-2.9v8.8h-1.4V1.4h-3V0.2H91z"/>
	<path d="M92.6,9.4h0.9V1.1h-0.9V0.2h3.2v0.9h-0.9v8.3h0.9v0.9h-3.2V9.4z"/>
	<path d="M104.1,2.5c0.3,0.9,0.4,2.1,0.4,2.8c0,2.4-0.7,5.3-3.4,5.3c-2.5,0-3.4-2.5-3.4-5.2c0-1.5,0.2-3,0.8-3.9
		c0.8-1.4,1.8-1.5,2.6-1.5C102.8,0,103.7,1.2,104.1,2.5z M101.2,1.2c-0.9,0-1.4,0.6-1.7,1.6c-0.2,0.6-0.3,1.5-0.3,2.6
		c0,1.3,0.2,4,1.9,4c1.4,0,2-1.5,2-4C103.1,3.9,103,1.2,101.2,1.2z"/>
	<path d="M106.9,0.2h1.8l2.9,6.5c0,0,0.4,1,0.4,1c0.1,0.2,0.4,1,0.4,1.1c0,0,0.1,0,0.1,0c0.1-0.1,0.1-0.1,0.1-0.2
		c0-0.2-0.1-0.8-0.1-1c0-0.6,0-1.2,0-1.5v-6h1.2v10.1h-1.8l-3-6.6c-0.4-0.8-0.7-1.9-0.8-2.2c0,0-0.1,0-0.1,0
		C108,1.6,108,1.6,108,1.7c0,0.3,0.1,1.8,0.1,1.9v6.7h-1.2V0.2z"/>
	<path d="M128.2,5.7c-0.5,1.2-1,1.8-1.7,2.6c0.5,0.5,0.8,0.9,1.3,0.9c0.3,0,0.5-0.1,0.7-0.2v1.3c-0.2,0.1-0.4,0.2-0.8,0.2
		c-1,0-1.6-0.7-2.1-1.2c-0.9,0.7-1.5,1.2-2.7,1.2c-2.1,0-3.1-1.7-3.1-3.1c0-1.9,1.6-2.9,2.2-3.2c-0.3-0.6-0.6-1.2-0.6-2.2
		c0-0.4,0.1-1,0.6-1.4c0.5-0.5,1.1-0.6,1.7-0.6c1,0,2.1,0.7,2.1,1.9c0,1.4-1.3,2.1-2.2,2.5c0.6,1.1,1.3,2,2.1,3
		c0.5-0.7,0.9-1.6,1.1-2.2L128.2,5.7z M124.8,8.5c-0.9-1.1-1.4-1.8-2.4-3.4c-0.6,0.4-1.4,1-1.4,2.1c0,1,0.7,2.2,2.1,2.2
		C123.7,9.3,124.3,9,124.8,8.5z M123.7,0.7c-0.9,0-1.2,0.6-1.2,1.2c0,0.4,0.3,1.1,0.7,1.7c0.9-0.4,1.6-0.8,1.6-1.8
		C124.9,1.1,124.2,0.7,123.7,0.7z"/>
	<path d="M5.9,26l-2.5-9.2c0,0,0-0.1-0.1-0.1s-0.1,0.1-0.1,0.1V26H2V15.9h2.1l2.2,7.9c0,0.1,0.1,0.1,0.1,0.1c0.1,0,0.2-0.1,0.2-0.1
		l2.1-7.8h2.1V26H9.7v-9.1c0-0.1-0.1-0.1-0.1-0.1c-0.1,0-0.1,0-0.1,0.1L7,26H5.9z"/>
	<path d="M15.7,15.9v6.7c0,1.1,0.2,2.4,1.9,2.4c0.5,0,1.2-0.2,1.5-0.9c0.3-0.6,0.3-1.3,0.3-1.9v-6.4h1.3v6.8c0,1-0.2,2-0.9,2.7
		c-0.8,0.8-1.8,0.9-2.5,0.9c-0.5,0-1.6-0.2-2.3-1.2c-0.6-0.8-0.6-1.7-0.6-2.6v-6.7H15.7z"/>
	<path d="M24.2,15.9h1.4v8.8h4.7V26h-6.1V15.9z"/>
	<path d="M37.2,15.9v1.3h-2.9V26h-1.4v-8.8h-3v-1.3H37.2z"/>
	<path d="M38.8,25.1h0.9v-8.3h-0.9v-0.9H42v0.9h-0.9v8.3H42V26h-3.2V25.1z"/>
	<path d="M48.6,26l-2.5-9.2c0,0,0-0.1-0.1-0.1s-0.1,0.1-0.1,0.1V26h-1.1V15.9h2.1l2.2,7.9c0,0.1,0.1,0.1,0.1,0.1
		c0.1,0,0.2-0.1,0.2-0.1l2.1-7.8h2.1V26h-1.1v-9.1c0-0.1-0.1-0.1-0.1-0.1c-0.1,0-0.1,0-0.1,0.1L49.8,26H48.6z"/>
	<path d="M56.9,15.9h6.3v1.2h-4.8v2.9H62v1.3h-3.5v3.4h5.1V26h-6.5V15.9z"/>
	<path d="M65.9,26V15.9h2.2c3.3,0,4.7,1.9,4.7,5.2c0,0.6-0.1,1.9-0.7,3c-0.4,0.8-1.3,1.9-4,1.9H65.9z M67.3,17.2v7.6h1
		c2.4,0,3-1.9,3-3.8c0-0.9-0.2-2.1-0.8-2.9c-0.6-0.7-1.3-0.9-2.5-0.9H67.3z"/>
	<path d="M74.8,25.1h0.9v-8.3h-0.9v-0.9h3.2v0.9h-0.9v8.3h0.9V26h-3.2V25.1z"/>
	<path d="M85.6,23.9h-4L81,26h-1.5l3.3-10.1h1.6L87.8,26h-1.5L85.6,23.9z M85.2,22.7l-1.6-5.2c0,0,0-0.1-0.1-0.1c0,0-0.1,0-0.1,0.1
		L82,22.7H85.2z"/>
	<path d="M93.4,26V15.9h2.2c3.3,0,4.7,1.9,4.7,5.2c0,0.6-0.1,1.9-0.7,3c-0.4,0.8-1.3,1.9-4,1.9H93.4z M94.9,17.2v7.6h1
		c2.4,0,3-1.9,3-3.8c0-0.9-0.2-2.1-0.8-2.9c-0.6-0.7-1.3-0.9-2.5-0.9H94.9z"/>
	<path d="M102.9,15.9h6.3v1.2h-4.8v2.9h3.6v1.3h-3.5v3.4h5.1V26h-6.5V15.9z"/>
	<path d="M116.6,18.5c-0.5-0.9-0.9-1.6-2.1-1.6c-0.6,0-1.5,0.4-1.5,1.3c0,0.9,0.8,1.3,1.1,1.4l2,0.9c0.3,0.2,1.1,0.6,1.5,1.3
		c0.1,0.2,0.3,0.6,0.3,1.4c0,1-0.3,1.7-1,2.3c-0.8,0.7-1.7,0.7-2.2,0.7c-0.6,0-1.6-0.2-2.3-0.8c-0.6-0.5-0.9-1-1.1-1.5l1.2-0.8
		c0.3,0.8,1,1.8,2.3,1.8c0.9,0,1.8-0.5,1.8-1.6c0-0.5-0.2-1.1-1.2-1.5l-1.8-0.8c-0.6-0.3-1.4-0.8-1.7-1.4c-0.1-0.2-0.3-0.7-0.3-1.4
		c0-1.5,1.3-2.6,2.9-2.6c1.5,0,2.6,0.8,3.3,2.2L116.6,18.5z"/>
	<path d="M119.9,25.1h0.9v-8.3h-0.9v-0.9h3.2v0.9h-0.9v8.3h0.9V26h-3.2V25.1z"/>
	<path d="M130.3,18.4c-0.2-0.5-0.5-1.5-1.7-1.5c-0.4,0-1.4,0.1-1.9,1.8c-0.3,0.9-0.3,2.2-0.3,2.3c0,1.1,0.1,2.1,0.5,3
		c0.5,1,1.3,1.1,1.6,1.1c0.8,0,1.2-0.4,1.4-0.6c0.5-0.6,0.6-1.2,0.6-1.8h-2v-1.3h3.3v4.9h-0.5l-0.3-0.6c-0.1-0.3-0.2-0.4-0.3-0.4
		c-0.1,0-0.1,0-0.2,0.1c-0.1,0.1-0.2,0.2-0.2,0.2c-0.3,0.2-1,0.8-2,0.8c-0.4,0-1.3,0-2.2-1.1c-1-1.2-1.2-3.1-1.2-4.2
		c0-1.2,0.2-2.7,0.8-3.7c0.8-1.4,2.1-1.6,2.7-1.6c1.7,0,2.8,1.2,3,2.4L130.3,18.4z"/>
	<path d="M135,15.9h1.8l2.9,6.5c0,0,0.4,1,0.4,1c0.1,0.2,0.4,1,0.4,1.1c0,0,0.1,0,0.1,0c0.1-0.1,0.1-0.1,0.1-0.2
		c0-0.2-0.1-0.8-0.1-1c0-0.6,0-1.2,0-1.5v-6h1.2V26H140l-3-6.6c-0.4-0.8-0.7-1.9-0.8-2.2c0,0-0.1,0-0.1,0c-0.1,0.1-0.1,0.1-0.1,0.2
		c0,0.3,0.1,1.8,0.1,1.9V26H135V15.9z"/>
	<path d="M1.2,42.1H0l3.3-10.6h1.2L1.2,42.1z"/>
	<path fill="#FFFFFF" d="M13.5,34.3c-0.5-0.9-0.9-1.6-2.1-1.6c-0.6,0-1.5,0.4-1.5,1.3c0,0.9,0.8,1.3,1.1,1.4l2,0.9
		c0.3,0.2,1.1,0.6,1.5,1.3c0.1,0.2,0.3,0.6,0.3,1.4c0,1-0.3,1.7-1,2.3c-0.8,0.7-1.7,0.7-2.2,0.7c-0.6,0-1.6-0.2-2.3-0.8
		c-0.6-0.5-0.9-1-1.1-1.5L9.5,39c0.3,0.8,1,1.8,2.3,1.8c0.9,0,1.8-0.5,1.8-1.6c0-0.5-0.2-1.1-1.2-1.5l-1.8-0.8
		c-0.6-0.3-1.4-0.8-1.7-1.4c-0.1-0.2-0.3-0.7-0.3-1.4c0-1.5,1.3-2.6,2.9-2.6c1.5,0,2.6,0.8,3.3,2.2L13.5,34.3z"/>
	<path fill="#FFFFFF" d="M16.3,37.6h3.6v1.2h-3.6V37.6z"/>
	<path fill="#FFFFFF" d="M22.1,31.6h1.4v4.2h3.6v-4.2h1.4v10.1h-1.4v-4.7h-3.6v4.7h-1.4V31.6z"/>
	<path fill="#FFFFFF" d="M32,31.6h6.3v1.2h-4.8v2.9H37v1.3h-3.5v3.4h5.1v1.3H32V31.6z"/>
	<path fill="#FFFFFF" d="M41.2,31.6h3.1c2.8,0,3.4,1.7,3.4,2.7c0,1.9-1.3,2.4-2.2,2.7l2.6,4.7h-1.7l-2.4-4.5h-1.6v4.5h-1.4V31.6z
		 M42.6,32.8v3.3c0.8,0,1.8,0,2.3-0.1c0.6-0.1,1.4-0.4,1.4-1.5c0-1.2-0.8-1.7-2.3-1.7H42.6z"/>
	<path fill="#FFFFFF" d="M56.6,31.6v1.3h-2.9v8.8h-1.4v-8.8h-3v-1.3H56.6z"/>
	<path fill="#FFFFFF" d="M64.4,33.9c0.3,0.9,0.4,2.1,0.4,2.8c0,2.4-0.7,5.3-3.4,5.3c-2.5,0-3.4-2.5-3.4-5.2c0-1.5,0.2-3,0.8-3.9
		c0.8-1.4,1.8-1.5,2.6-1.5C63.1,31.5,63.9,32.7,64.4,33.9z M61.4,32.7c-0.9,0-1.4,0.6-1.7,1.6c-0.2,0.6-0.3,1.5-0.3,2.6
		c0,1.3,0.2,4,1.9,4c1.4,0,2-1.5,2-4C63.3,35.4,63.2,32.7,61.4,32.7z"/>
	<path fill="#FFFFFF" d="M71.6,34.2c-0.2-0.5-0.5-1.5-1.7-1.5c-0.4,0-1.4,0.1-1.9,1.8c-0.3,0.9-0.3,2.2-0.3,2.3c0,1.1,0.1,2.1,0.5,3
		c0.5,1,1.3,1.1,1.6,1.1c0.8,0,1.2-0.4,1.4-0.6c0.5-0.6,0.6-1.2,0.6-1.8h-2v-1.3h3.3V42h-0.5l-0.3-0.6c-0.1-0.3-0.2-0.4-0.3-0.4
		c-0.1,0-0.1,0-0.2,0.1c-0.1,0.1-0.2,0.2-0.2,0.2c-0.3,0.2-1,0.8-2,0.8c-0.4,0-1.3,0-2.2-1.1c-1-1.2-1.2-3.1-1.2-4.2
		c0-1.2,0.2-2.7,0.8-3.7c0.8-1.4,2.1-1.6,2.7-1.6c1.7,0,2.8,1.2,3,2.4L71.6,34.2z"/>
	<path fill="#FFFFFF" d="M76.4,31.6h6.3v1.2h-4.8v2.9h3.6v1.3h-3.5v3.4h5.1v1.3h-6.5V31.6z"/>
	<path fill="#FFFFFF" d="M85.5,31.6h1.8l2.9,6.5c0,0,0.4,1,0.4,1c0.1,0.2,0.4,1,0.4,1.1c0,0,0.1,0,0.1,0c0.1-0.1,0.1-0.1,0.1-0.2
		c0-0.2-0.1-0.8-0.1-1c0-0.6,0-1.2,0-1.5v-6h1.2v10.1h-1.8l-3-6.6c-0.4-0.8-0.7-1.9-0.8-2.2c0,0-0.1,0-0.1,0
		c-0.1,0.1-0.1,0.1-0.1,0.2c0,0.3,0.1,1.8,0.1,1.9v6.7h-1.2V31.6z"/>
	<path fill="#FFFFFF" d="M95.4,31.6h2.9c0.6,0,1.6,0,2.3,0.5c0.8,0.5,1,1.4,1,1.7c0,1.4-0.8,1.8-1.2,2c-0.1,0.1-0.4,0.2-0.6,0.2
		c-0.2,0-0.2,0.1-0.2,0.2c0,0.1,0.1,0.2,0.4,0.2l0.4,0.1c1,0.3,1.8,1.3,1.8,2.5c0,1.3-0.7,1.9-1,2.1c-0.8,0.6-2.1,0.6-2.8,0.6h-3
		V31.6z M98.1,35.8c0.6,0,1.2-0.1,1.5-0.4c0.2-0.2,0.5-0.6,0.5-1.2c0-1.4-1.5-1.4-2.5-1.4h-1v3.1H98.1z M96.7,40.6h2
		c0.5,0,2,0,2-1.7c0-1.1-0.6-1.7-1.7-1.9c0,0-0.8-0.1-2.3-0.1V40.6z"/>
	<path fill="#FFFFFF" d="M110.3,33.9c0.3,0.9,0.4,2.1,0.4,2.8c0,2.4-0.7,5.3-3.4,5.3c-2.5,0-3.4-2.5-3.4-5.2c0-1.5,0.2-3,0.8-3.9
		c0.8-1.4,1.8-1.5,2.6-1.5C109,31.5,109.9,32.7,110.3,33.9z M107.3,32.7c-0.9,0-1.4,0.6-1.7,1.6c-0.2,0.6-0.3,1.5-0.3,2.6
		c0,1.3,0.2,4,1.9,4c1.4,0,2-1.5,2-4C109.2,35.4,109.1,32.7,107.3,32.7z"/>
	<path fill="#FFFFFF" d="M117.7,34.3c-0.5-0.9-0.9-1.6-2.1-1.6c-0.6,0-1.5,0.4-1.5,1.3c0,0.9,0.8,1.3,1.1,1.4l2,0.9
		c0.3,0.2,1.1,0.6,1.5,1.3c0.1,0.2,0.3,0.6,0.3,1.4c0,1-0.3,1.7-1,2.3c-0.8,0.7-1.7,0.7-2.2,0.7c-0.6,0-1.6-0.2-2.3-0.8
		c-0.6-0.5-0.9-1-1.1-1.5l1.2-0.8c0.3,0.8,1,1.8,2.3,1.8c0.9,0,1.8-0.5,1.8-1.6c0-0.5-0.2-1.1-1.2-1.5l-1.8-0.8
		c-0.6-0.3-1.4-0.8-1.7-1.4c-0.1-0.2-0.3-0.7-0.3-1.4c0-1.5,1.3-2.6,2.9-2.6c1.5,0,2.6,0.8,3.3,2.2L117.7,34.3z"/>
	<path fill="#FFFFFF" d="M125.9,34.6c-0.1-1-0.6-1.9-1.7-1.9c-1,0-1.4,0.8-1.7,1.3c-0.4,0.9-0.4,2.3-0.4,2.4c0,2.2,0.4,4.4,2.1,4.4
		c0.8,0,1.2-0.6,1.3-0.8c0.3-0.5,0.3-1,0.4-1.4l1.4,0.2c-0.1,0.8-0.3,1.7-1,2.3c-0.9,0.9-1.9,0.9-2.2,0.9c-0.8,0-3.3-0.4-3.3-5.3
		c0-2.3,0.6-5.3,3.4-5.3c0.6,0,1.5,0.2,2.1,0.8c0.7,0.7,0.8,1.5,0.9,2L125.9,34.6z"/>
	<path fill="#FFFFFF" d="M130.1,31.6h1.4v4.2h3.6v-4.2h1.4v10.1h-1.4v-4.7h-3.6v4.7h-1.4V31.6z"/>
</g>
</svg>
