<?xml version="1.0" encoding="utf-8"?>
<!-- Generator: Adobe Illustrator 18.1.0, SVG Export Plug-In . SVG Version: 6.00 Build 0)  -->
<!DOCTYPE svg PUBLIC "-//W3C//DTD SVG 1.1//EN" "http://www.w3.org/Graphics/SVG/1.1/DTD/svg11.dtd">
<svg version="1.1" id="Laag_1" xmlns="http://www.w3.org/2000/svg" xmlns:xlink="http://www.w3.org/1999/xlink" x="0px" y="0px"
	 viewBox="49 79 50 50" enable-background="new 49 79 50 50" xml:space="preserve">
<circle fill="#F0F0F0" cx="74" cy="104" r="25"/>
<path fill="#E4087D" d="M85.7,111.6l-7.7-7.7l7.5-7.5c0.8-0.8,0.8-2,0-2.8l-1.4-1.4c-0.8-0.8-2-0.8-2.8,0l-7.5,7.5l-7.5-7.5
	c-0.8-0.8-2-0.8-2.8,0l-1.4,1.4c-0.8,0.8-0.8,2,0,2.8l7.5,7.5l-7.7,7.7c-0.8,0.8-0.8,2,0,2.8l1.4,1.4c0.8,0.8,2,0.8,2.8,0l7.7-7.7
	l7.7,7.7c0.8,0.8,2,0.8,2.8,0l1.4-1.4C86.5,113.6,86.5,112.3,85.7,111.6z"/>
</svg>
