<?xml version="1.0" encoding="utf-8"?>
<!-- Generator: Adobe Illustrator 18.1.0, SVG Export Plug-In . SVG Version: 6.00 Build 0)  -->
<!DOCTYPE svg PUBLIC "-//W3C//DTD SVG 1.1//EN" "http://www.w3.org/Graphics/SVG/1.1/DTD/svg11.dtd">
<svg version="1.1" id="Laag_1" xmlns="http://www.w3.org/2000/svg" xmlns:xlink="http://www.w3.org/1999/xlink" x="0px" y="0px"
	 viewBox="0 50 50 50" enable-background="new 0 50 50 50" xml:space="preserve">
<circle fill="#F0F0F0" cx="25" cy="75" r="25"/>
<circle fill="#F63996" cx="25" cy="75" r="22.5"/>
<path fill="#E4087D" d="M36.4,72.8l-9.5-9.6c-0.4-0.4-0.7-0.3-0.7,0.3v5.3C14.5,71.2,11.1,80.6,9.9,86.2l0,0l0,0l0,0
	c0,0.1,0,0.1,0.1,0.2c0,0,0,0,0.1,0s0.2,0,0.2-0.1c3.6-5,8.5-7.7,15.9-8v5.2c0,0.6,0.3,0.8,0.7,0.3l9.5-9.6
	C36.9,73.9,36.8,73.2,36.4,72.8z"/>
</svg>
