<?xml version="1.0" encoding="utf-8"?>
<!-- Generator: Adobe Illustrator 18.1.0, SVG Export Plug-In . SVG Version: 6.00 Build 0)  -->
<!DOCTYPE svg PUBLIC "-//W3C//DTD SVG 1.1//EN" "http://www.w3.org/Graphics/SVG/1.1/DTD/svg11.dtd">
<svg version="1.1" id="Laag_1" xmlns="http://www.w3.org/2000/svg" xmlns:xlink="http://www.w3.org/1999/xlink" x="0px" y="0px"
	 viewBox="0 0 50 50" enable-background="new 0 0 50 50" xml:space="preserve">
<circle fill="#F0F0F0" cx="25" cy="25" r="25"/>
<g>
	<path fill="#E4087D" d="M25,34.1c3.5,0,6.3-2.8,6.3-6.3V13.7c0-3.5-2.8-6.3-6.3-6.3s-6.3,2.8-6.3,6.3v14.1
		C18.7,31.2,21.5,34.1,25,34.1L25,34.1z"/>
	<path fill="#E4087D" d="M35.1,24.6h-1.2c-0.4,0-0.7,0.3-0.7,0.7v2c0,4.5-3.6,8.1-8.1,8.1s-8.1-3.6-8.1-8.1v-2
		c0-0.4-0.3-0.7-0.7-0.7h-1.2c-0.4,0-0.7,0.3-0.7,0.7v2c0,5.4,4.1,10.1,9.5,10.7v1.8H18c-0.4,0-0.7,0.3-0.7,0.7v1.2
		c0,0.4,0.3,0.7,0.7,0.7h13.9c0.4,0,0.7-0.3,0.7-0.7v-1.2c0-0.4-0.3-0.7-0.7-0.7h-5.6v-1.8c5.3-0.7,9.5-5.4,9.5-10.7v-2
		C35.8,24.9,35.5,24.6,35.1,24.6L35.1,24.6z"/>
</g>
</svg>
