<?xml version="1.0" encoding="utf-8"?>
<!-- Generator: Adobe Illustrator 18.1.0, SVG Export Plug-In . SVG Version: 6.00 Build 0)  -->
<!DOCTYPE svg PUBLIC "-//W3C//DTD SVG 1.1//EN" "http://www.w3.org/Graphics/SVG/1.1/DTD/svg11.dtd">
<svg version="1.1" id="Laag_1" xmlns="http://www.w3.org/2000/svg" xmlns:xlink="http://www.w3.org/1999/xlink" x="0px" y="0px"
	 viewBox="0 0 50 50" enable-background="new 0 0 50 50" xml:space="preserve">
<circle fill="#F63996" cx="25" cy="25" r="22.5"/>
<g>
	<g>
		<g>
			<path fill="#F0F0F0" d="M15.2,33.5c0,0.9,0.7,1.6,1.6,1.6h4.2c0.9,0,1.6-0.7,1.6-1.6V16.1c0-0.9-0.7-1.6-1.6-1.6h-4.2
				c-0.9,0-1.6,0.7-1.6,1.6V33.5z"/>
		</g>
		<g>
			<path fill="#F0F0F0" d="M27.5,33.5c0,0.9,0.7,1.6,1.6,1.6h4.2c0.9,0,1.6-0.7,1.6-1.6V16.1c0-0.9-0.7-1.6-1.6-1.6h-4.2
				c-0.9,0-1.6,0.7-1.6,1.6V33.5z"/>
		</g>
	</g>
</g>
<path fill="#F0F0F0" d="M25,0C11.2,0,0,11.2,0,25s11.2,25,25,25s25-11.2,25-25S38.8,0,25,0z M25,47.5C12.6,47.5,2.5,37.4,2.5,25
	S12.6,2.5,25,2.5S47.5,12.6,47.5,25S37.4,47.5,25,47.5z"/>
</svg>
