<?xml version="1.0" encoding="utf-8"?>
<!-- Generator: Adobe Illustrator 18.1.0, SVG Export Plug-In . SVG Version: 6.00 Build 0)  -->
<!DOCTYPE svg PUBLIC "-//W3C//DTD SVG 1.1//EN" "http://www.w3.org/Graphics/SVG/1.1/DTD/svg11.dtd">
<svg version="1.1" id="Laag_1" xmlns="http://www.w3.org/2000/svg" xmlns:xlink="http://www.w3.org/1999/xlink" x="0px" y="0px"
	 viewBox="49 79 50 50" enable-background="new 49 79 50 50" xml:space="preserve">
<path fill="#F0F0F0" d="M74,79c-13.8,0-25,11.2-25,25s11.2,25,25,25s25-11.2,25-25S87.8,79,74,79z M74,126.5
	c-12.4,0-22.5-10.1-22.5-22.5c0-12.4,10.1-22.5,22.5-22.5S96.5,91.6,96.5,104C96.5,116.4,86.4,126.5,74,126.5z"/>
<circle fill="#E4087D" cx="74" cy="104" r="22.5"/>
<path fill="#F0F0F0" d="M85.4,101.8l-9.5-9.6c-0.4-0.4-0.7-0.3-0.7,0.3v5.3c-11.7,2.4-15.1,11.8-16.3,17.4c0,0,0,0,0,0c0,0,0,0,0,0
	c0,0,0,0,0,0c0,0.1,0,0.1,0.1,0.2c0,0,0,0,0.1,0c0.1,0,0.2,0,0.2-0.1c3.6-5,8.5-7.7,15.9-8v5.2c0,0.6,0.3,0.8,0.7,0.3l9.5-9.6
	C85.9,102.9,85.8,102.2,85.4,101.8z"/>
</svg>
