<?xml version="1.0" encoding="utf-8"?>
<!-- Generator: Adobe Illustrator 17.0.0, SVG Export Plug-In . SVG Version: 6.00 Build 0)  -->
<!DOCTYPE svg PUBLIC "-//W3C//DTD SVG 1.1//EN" "http://www.w3.org/Graphics/SVG/1.1/DTD/svg11.dtd">
<svg version="1.1" id="Laag_1" xmlns="http://www.w3.org/2000/svg" xmlns:xlink="http://www.w3.org/1999/xlink" x="0px" y="0px"
	 width="128px" height="128px" viewBox="0 0 128 128" enable-background="new 0 0 128 128" xml:space="preserve">
<g>
	<path fill="#F0F0F0" d="M64,47c-8.929,0-16.167,7.238-16.167,16.167S55.071,79.333,64,79.333s16.167-7.238,16.167-16.167
		S72.929,47,64,47z M64,74.69c-6.364,0-11.523-5.159-11.523-11.523S57.636,51.644,64,51.644s11.523,5.159,11.523,11.523
		S70.364,74.69,64,74.69z"/>
	<path fill="#F0F0F0" d="M64,27.833c-19.422,0-35.167,15.745-35.167,35.167S44.578,98.167,64,98.167
		c19.422,0,35.167-15.745,35.167-35.167S83.422,27.833,64,27.833z M64,92.167c-16.108,0-29.167-13.058-29.167-29.167
		c0-16.108,13.058-29.167,29.167-29.167c16.108,0,29.167,13.058,29.167,29.167C93.167,79.108,80.108,92.167,64,92.167z"/>
</g>
</svg>
