<?xml version="1.0" encoding="utf-8"?>
<!-- Generator: Adobe Illustrator 17.0.0, SVG Export Plug-In . SVG Version: 6.00 Build 0)  -->
<!DOCTYPE svg PUBLIC "-//W3C//DTD SVG 1.1//EN" "http://www.w3.org/Graphics/SVG/1.1/DTD/svg11.dtd">
<svg version="1.1" id="Laag_1" xmlns="http://www.w3.org/2000/svg" xmlns:xlink="http://www.w3.org/1999/xlink" x="0px" y="0px"
	 width="128px" height="128px" viewBox="0 0 128 128" enable-background="new 0 0 128 128" xml:space="preserve">
<g>
	<path fill="#F0F0F0" d="M64.002,81.481c6.727,0,12.201-5.474,12.201-12.202V41.869c0-6.727-5.474-12.202-12.201-12.202
		c-6.731,0-12.202,5.475-12.202,12.202v27.409C51.8,76.006,57.271,81.481,64.002,81.481L64.002,81.481z M64.002,81.481"/>
	<path fill="#F0F0F0" d="M83.614,62.978h-2.43c-0.78,0-1.415,0.634-1.415,1.415v3.975c0,8.695-7.073,15.767-15.767,15.767
		c-8.698,0-15.771-7.073-15.771-15.767v-3.975c0-0.78-0.632-1.415-1.415-1.415H44.39c-0.78,0-1.416,0.634-1.416,1.415v3.975
		c0,10.397,8.081,19.557,18.397,20.855v3.52H50.519c-0.78,0-1.412,0.635-1.412,1.416v2.43c0,0.779,0.632,1.411,1.412,1.411h26.961
		c0.78,0,1.415-0.632,1.415-1.411v-2.43c0-0.78-0.634-1.416-1.415-1.416H66.629v-3.52c10.316-1.298,18.397-10.459,18.397-20.855
		v-3.975C85.026,63.612,84.394,62.978,83.614,62.978L83.614,62.978z M83.614,62.978"/>
</g>
</svg>
