<?xml version="1.0" encoding="utf-8"?>
<!-- Generator: Adobe Illustrator 17.0.0, SVG Export Plug-In . SVG Version: 6.00 Build 0)  -->
<!DOCTYPE svg PUBLIC "-//W3C//DTD SVG 1.1//EN" "http://www.w3.org/Graphics/SVG/1.1/DTD/svg11.dtd">
<svg version="1.1" id="Laag_1" xmlns="http://www.w3.org/2000/svg" xmlns:xlink="http://www.w3.org/1999/xlink" x="0px" y="0px"
	 width="128px" height="128px" viewBox="0 0 128 128" enable-background="new 0 0 128 128" xml:space="preserve">
<g>
	<g>
		<path fill="#F0F0F0" d="M63.999,67.194c1.742,0,3.195-1.453,3.195-3.195c0-1.742-1.453-3.195-3.195-3.195
			c-1.742,0-3.195,1.453-3.195,3.195C60.804,65.742,62.257,67.194,63.999,67.194z"/>
	</g>
	<g>
		<path fill="#F0F0F0" d="M64,29.143c-19.172,0-34.857,15.685-34.857,34.857S44.828,98.857,64,98.857S98.857,83.17,98.857,63.999
			S83.172,29.143,64,29.143z M70.901,66.856c-0.76,1.465-2.58,3.285-4.045,4.045l-17.622,9.146c-1.465,0.76-2.041,0.184-1.281-1.281
			l9.146-17.622c0.76-1.465,2.58-3.285,4.045-4.045l17.622-9.146c1.465-0.76,2.041-0.184,1.281,1.281L70.901,66.856z"/>
	</g>
</g>
</svg>
