<?xml version="1.0" encoding="utf-8"?>
<!-- Generator: Adobe Illustrator 18.0.0, SVG Export Plug-In . SVG Version: 6.00 Build 0)  -->
<!DOCTYPE svg PUBLIC "-//W3C//DTD SVG 1.1//EN" "http://www.w3.org/Graphics/SVG/1.1/DTD/svg11.dtd">
<svg version="1.1" id="Laag_1" xmlns="http://www.w3.org/2000/svg" xmlns:xlink="http://www.w3.org/1999/xlink" x="0px" y="0px"
	 viewBox="0 0 128 128" enable-background="new 0 0 128 128" xml:space="preserve">
<g>
	<g>
		<g>
			<path fill="#e4087d" d="M38.8,85.7c0,2.2,1.8,4,4,4h10.8c2.2,0,4-1.8,4-4V41.3c0-2.2-1.8-4-4-4H42.8c-2.2,0-4,1.8-4,4V85.7z"/>
		</g>
		<g>
			<path fill="#e4087d" d="M70.4,85.7c0,2.2,1.8,4,4,4h10.8c2.2,0,4-1.8,4-4V41.3c0-2.2-1.8-4-4-4H74.4c-2.2,0-4,1.8-4,4V85.7z"/>
		</g>
	</g>
</g>
</svg>
