<?xml version="1.0" encoding="utf-8"?>
<!-- Generator: Adobe Illustrator 18.0.0, SVG Export Plug-In . SVG Version: 6.00 Build 0)  -->
<!DOCTYPE svg PUBLIC "-//W3C//DTD SVG 1.1//EN" "http://www.w3.org/Graphics/SVG/1.1/DTD/svg11.dtd">
<svg version="1.1" id="kompas" xmlns="http://www.w3.org/2000/svg" xmlns:xlink="http://www.w3.org/1999/xlink" x="0px" y="0px"
	 viewBox="0 0 128 128" enable-background="new 0 0 128 128" xml:space="preserve">
<line fill="none" stroke="#F0F0F0" stroke-miterlimit="10" x1="18.7" y1="18.7" x2="21.6" y2="21.6"/>
<line fill="none" stroke="#F0F0F0" stroke-miterlimit="10" x1="18.7" y1="109.3" x2="21.6" y2="106.4"/>
<line fill="none" stroke="#F0F0F0" stroke-miterlimit="10" x1="109.3" y1="109.3" x2="106.4" y2="106.4"/>
<line fill="none" stroke="#F0F0F0" stroke-miterlimit="10" x1="109.3" y1="18.7" x2="106.4" y2="21.6"/>
<line fill="none" stroke="#F0F0F0" stroke-miterlimit="10" x1="32" y1="8.6" x2="33.5" y2="11.2"/>
<line fill="none" stroke="#F0F0F0" stroke-miterlimit="10" x1="8.6" y1="32" x2="11.2" y2="33.5"/>
<line fill="none" stroke="#F0F0F0" stroke-miterlimit="10" x1="8.6" y1="96" x2="11.2" y2="94.5"/>
<line fill="none" stroke="#F0F0F0" stroke-miterlimit="10" x1="32" y1="119.4" x2="33.5" y2="116.8"/>
<line fill="none" stroke="#F0F0F0" stroke-miterlimit="10" x1="96" y1="119.4" x2="94.5" y2="116.8"/>
<line fill="none" stroke="#F0F0F0" stroke-miterlimit="10" x1="119.4" y1="96" x2="116.8" y2="94.5"/>
<line fill="none" stroke="#F0F0F0" stroke-miterlimit="10" x1="119.4" y1="32" x2="116.8" y2="33.5"/>
<line fill="none" stroke="#F0F0F0" stroke-miterlimit="10" x1="96" y1="8.6" x2="94.5" y2="11.2"/>
<line fill="none" stroke="#F0F0F0" stroke-miterlimit="10" x1="58.4" y1="0.2" x2="58.6" y2="2.2"/>
<line fill="none" stroke="#F0F0F0" stroke-miterlimit="10" x1="52.9" y1="1" x2="53.2" y2="2.9"/>
<line fill="none" stroke="#F0F0F0" stroke-miterlimit="10" x1="47.4" y1="2.2" x2="48" y2="4.1"/>
<line fill="none" stroke="#F0F0F0" stroke-miterlimit="10" x1="42.1" y1="3.9" x2="42.8" y2="5.7"/>
<line fill="none" stroke="#F0F0F0" stroke-miterlimit="10" x1="37" y1="6" x2="37.8" y2="7.8"/>
<line fill="none" stroke="#F0F0F0" stroke-miterlimit="10" x1="27.3" y1="11.6" x2="28.4" y2="13.2"/>
<line fill="none" stroke="#F0F0F0" stroke-miterlimit="10" x1="22.9" y1="15" x2="24.1" y2="16.5"/>
<line fill="none" stroke="#F0F0F0" stroke-miterlimit="10" x1="15" y1="22.9" x2="16.5" y2="24.1"/>
<line fill="none" stroke="#F0F0F0" stroke-miterlimit="10" x1="11.6" y1="27.3" x2="13.2" y2="28.4"/>
<line fill="none" stroke="#F0F0F0" stroke-miterlimit="10" x1="6" y1="37" x2="7.8" y2="37.8"/>
<line fill="none" stroke="#F0F0F0" stroke-miterlimit="10" x1="3.9" y1="42.1" x2="5.7" y2="42.8"/>
<line fill="none" stroke="#F0F0F0" stroke-miterlimit="10" x1="2.2" y1="47.4" x2="4.1" y2="48"/>
<line fill="none" stroke="#F0F0F0" stroke-miterlimit="10" x1="1" y1="52.9" x2="2.9" y2="53.2"/>
<line fill="none" stroke="#F0F0F0" stroke-miterlimit="10" x1="0.2" y1="58.4" x2="2.2" y2="58.6"/>
<line fill="none" stroke="#F0F0F0" stroke-miterlimit="10" x1="0.2" y1="69.6" x2="2.2" y2="69.4"/>
<line fill="none" stroke="#F0F0F0" stroke-miterlimit="10" x1="1" y1="75.1" x2="2.9" y2="74.8"/>
<line fill="none" stroke="#F0F0F0" stroke-miterlimit="10" x1="2.2" y1="80.6" x2="4.1" y2="80"/>
<line fill="none" stroke="#F0F0F0" stroke-miterlimit="10" x1="3.9" y1="85.9" x2="5.7" y2="85.2"/>
<line fill="none" stroke="#F0F0F0" stroke-miterlimit="10" x1="6" y1="91" x2="7.8" y2="90.2"/>
<line fill="none" stroke="#F0F0F0" stroke-miterlimit="10" x1="11.6" y1="100.7" x2="13.2" y2="99.6"/>
<line fill="none" stroke="#F0F0F0" stroke-miterlimit="10" x1="15" y1="105.1" x2="16.5" y2="103.9"/>
<line fill="none" stroke="#F0F0F0" stroke-miterlimit="10" x1="22.9" y1="113" x2="24.1" y2="111.5"/>
<line fill="none" stroke="#F0F0F0" stroke-miterlimit="10" x1="27.3" y1="116.4" x2="28.4" y2="114.8"/>
<line fill="none" stroke="#F0F0F0" stroke-miterlimit="10" x1="37" y1="122" x2="37.8" y2="120.2"/>
<line fill="none" stroke="#F0F0F0" stroke-miterlimit="10" x1="42.1" y1="124.1" x2="42.8" y2="122.3"/>
<line fill="none" stroke="#F0F0F0" stroke-miterlimit="10" x1="47.4" y1="125.8" x2="48" y2="123.9"/>
<line fill="none" stroke="#F0F0F0" stroke-miterlimit="10" x1="52.9" y1="127" x2="53.2" y2="125.1"/>
<line fill="none" stroke="#F0F0F0" stroke-miterlimit="10" x1="58.4" y1="127.8" x2="58.6" y2="125.8"/>
<line fill="none" stroke="#F0F0F0" stroke-miterlimit="10" x1="69.6" y1="127.8" x2="69.4" y2="125.8"/>
<line fill="none" stroke="#F0F0F0" stroke-miterlimit="10" x1="75.1" y1="127" x2="74.8" y2="125.1"/>
<line fill="none" stroke="#F0F0F0" stroke-miterlimit="10" x1="80.6" y1="125.8" x2="80" y2="123.9"/>
<line fill="none" stroke="#F0F0F0" stroke-miterlimit="10" x1="85.9" y1="124.1" x2="85.2" y2="122.3"/>
<line fill="none" stroke="#F0F0F0" stroke-miterlimit="10" x1="91" y1="122" x2="90.2" y2="120.2"/>
<line fill="none" stroke="#F0F0F0" stroke-miterlimit="10" x1="100.7" y1="116.4" x2="99.6" y2="114.8"/>
<line fill="none" stroke="#F0F0F0" stroke-miterlimit="10" x1="105.1" y1="113" x2="103.9" y2="111.5"/>
<line fill="none" stroke="#F0F0F0" stroke-miterlimit="10" x1="113" y1="105.1" x2="111.5" y2="103.9"/>
<line fill="none" stroke="#F0F0F0" stroke-miterlimit="10" x1="116.4" y1="100.7" x2="114.8" y2="99.6"/>
<line fill="none" stroke="#F0F0F0" stroke-miterlimit="10" x1="122" y1="91" x2="120.2" y2="90.2"/>
<line fill="none" stroke="#F0F0F0" stroke-miterlimit="10" x1="124.1" y1="85.9" x2="122.3" y2="85.2"/>
<line fill="none" stroke="#F0F0F0" stroke-miterlimit="10" x1="125.8" y1="80.6" x2="123.9" y2="80"/>
<line fill="none" stroke="#F0F0F0" stroke-miterlimit="10" x1="127" y1="75.1" x2="125.1" y2="74.8"/>
<line fill="none" stroke="#F0F0F0" stroke-miterlimit="10" x1="127.8" y1="69.6" x2="125.8" y2="69.4"/>
<line fill="none" stroke="#F0F0F0" stroke-miterlimit="10" x1="127.8" y1="58.4" x2="125.8" y2="58.6"/>
<line fill="none" stroke="#F0F0F0" stroke-miterlimit="10" x1="127" y1="52.9" x2="125.1" y2="53.2"/>
<line fill="none" stroke="#F0F0F0" stroke-miterlimit="10" x1="125.8" y1="47.4" x2="123.9" y2="48"/>
<line fill="none" stroke="#F0F0F0" stroke-miterlimit="10" x1="124.1" y1="42.1" x2="122.3" y2="42.8"/>
<line fill="none" stroke="#F0F0F0" stroke-miterlimit="10" x1="122" y1="37" x2="120.2" y2="37.8"/>
<line fill="none" stroke="#F0F0F0" stroke-miterlimit="10" x1="116.4" y1="27.3" x2="114.8" y2="28.4"/>
<line fill="none" stroke="#F0F0F0" stroke-miterlimit="10" x1="113" y1="22.9" x2="111.5" y2="24.1"/>
<line fill="none" stroke="#F0F0F0" stroke-miterlimit="10" x1="105.1" y1="15" x2="103.9" y2="16.5"/>
<line fill="none" stroke="#F0F0F0" stroke-miterlimit="10" x1="100.7" y1="11.6" x2="99.6" y2="13.2"/>
<line fill="none" stroke="#F0F0F0" stroke-miterlimit="10" x1="91" y1="6" x2="90.2" y2="7.8"/>
<line fill="none" stroke="#F0F0F0" stroke-miterlimit="10" x1="85.9" y1="3.9" x2="85.2" y2="5.7"/>
<line fill="none" stroke="#F0F0F0" stroke-miterlimit="10" x1="80.6" y1="2.2" x2="80" y2="4.1"/>
<line fill="none" stroke="#F0F0F0" stroke-miterlimit="10" x1="75.1" y1="1" x2="74.8" y2="2.9"/>
<line fill="none" stroke="#F0F0F0" stroke-miterlimit="10" x1="69.6" y1="0.2" x2="69.4" y2="2.2"/>
<path fill="#F0F0F0" d="M128,64c0-1.1-0.9-2.2-2-2.2c-1.1,0-2,1.1-2,2.2s0.9,2.2,2,2.2C127.1,66.2,128,65.1,128,64z M125,64
	c0-0.6,0.5-1.2,1-1.2c0.5,0,1,0.6,1,1.2s-0.5,1.2-1,1.2C125.5,65.2,125,64.6,125,64z"/>
<path fill="#F0F0F0" d="M65.2,0l-0.1,2.9L62.8,0c-0.3,0-0.7,0-1,0l0.1,4c0.3,0,0.7,0,1,0l-0.1-2.7L65.1,4c0.3,0,0.7,0,1,0l0.1-4
	C65.9,0,65.6,0,65.2,0z"/>
<path fill="#F0F0F0" d="M64.2,125l-2.5,3c0.7,0,1.5,0.1,2.2,0.1s1.5,0,2.2-0.1l0-1c-0.7,0-1.5,0.1-2.2,0.1c-0.3,0-0.4,0-0.4,0
	l2.5-3.1l-1,0l0,0c-0.4,0-0.7,0-1.1,0c-0.7,0-1.4,0-2.1-0.1l0,1c0.7,0,1.4,0.1,2.1,0.1C64.1,125,64.2,125,64.2,125z"/>
<path fill="#F0F0F0" d="M0,62.8l2.9,0.1l-0.8,0.6v1l0.8,0.6L0,65.2c0,0.3,0,0.7,0,1l4-0.1l0-1L2.7,64L4,62.9l0-1l-4-0.1
	C0,62.1,0,62.4,0,62.8z"/>
</svg>
